<svg width="122" height="46" viewBox="0 0 122 46" fill="none" xmlns="http://www.w3.org/2000/svg">
<g clip-path="url(#clip0_3_13)">
<path d="M55.6637 5.84584H65.8391V39.2859H55.6637V5.84584ZM0 15.824H7.31509V39.2859H17.1569V15.824H24.472V5.84584H0V15.824ZM43.7973 5.84584L37.7055 28.0313C37.6668 28.1689 37.5875 28.2859 37.4818 28.3612C37.3761 28.4365 37.2509 28.4652 37.1288 28.4421C37.0067 28.419 36.8956 28.3457 36.8155 28.2352C36.7354 28.1248 36.6914 27.9845 36.6916 27.8396V5.84584H27.015V39.2859H44.7769L54.4225 5.84584H43.7973ZM85.9004 5.84584V19.8183C85.8983 19.9538 85.8577 20.0846 85.7851 20.19C85.7125 20.2954 85.612 20.3694 85.4994 20.4004C85.3869 20.4314 85.2688 20.4176 85.1637 20.3611C85.0586 20.3046 84.9726 20.2088 84.9192 20.0886L78.8993 5.84584H69.2833V39.2859H78.6344V25.392C78.6365 25.2565 78.6771 25.1258 78.7497 25.0204C78.8224 24.915 78.9229 24.8409 79.0354 24.8099C79.1479 24.7789 79.2661 24.7927 79.3711 24.8492C79.4762 24.9057 79.5622 25.0016 79.6156 25.1218L85.6061 39.2859H95.2222V5.84584H85.9004ZM107.129 25.9383V18.6338C107.042 17.821 107.212 16.9989 107.606 16.3224C108.001 15.646 108.592 15.1619 109.27 14.9615C109.659 14.8573 110.061 14.8442 110.454 14.9228C110.847 15.0014 111.223 15.1702 111.56 15.4196C111.897 15.6689 112.188 15.9939 112.418 16.3758C112.648 16.7576 112.811 17.1889 112.897 17.6448L121.846 12.029C118.319 4.50034 111.72 4.59425 109.08 4.87409C106.17 5.0823 103.393 6.3773 101.155 8.56942C99.9397 9.94319 98.9896 11.6065 98.3689 13.4471C97.7483 15.2877 97.4716 17.2629 97.5575 19.2395V25.8252C97.5575 32.1003 99.6688 36.2883 103.317 38.7339C109.607 42.9506 118.435 40.0756 122.005 36.892V20.8418H112.758V30.8526C111.45 31.4487 107.129 32.1329 107.129 25.9287" fill="white"/>
</g>
<defs>
<clipPath id="clip0_3_13">
<rect width="122" height="46" fill="white"/>
</clipPath>
</defs>
</svg>
