<svg data-name="Group 5646" xmlns="http://www.w3.org/2000/svg" width="19" height="19" viewBox="0 0 19 19">
    <defs>
        <clipPath id="zyb7s404ya">
            <path data-name="Rectangle 4391" style="fill:none" d="M0 0h19v19H0z"/>
        </clipPath>
    </defs>
    <g data-name="Group 5645" style="clip-path:url(#zyb7s404ya)">
        <path data-name="Path 4662" d="M4.049 0h10.9A4.049 4.049 0 0 1 19 4.049v10.9A4.049 4.049 0 0 1 14.951 19H4.049A4.049 4.049 0 0 1 0 14.951V4.049A4.049 4.049 0 0 1 4.049 0" style="fill:#ff153c"/>
        <path data-name="Path 4663" d="M178.432 0v12.878L182.577 0z" transform="translate(-168.746)" style="fill:#fff"/>
        <path data-name="Path 4664" d="M178.432 76.854v8.706l2.8-8.706z" transform="translate(-168.746 -72.682)" style="fill:#00d8ea"/>
        <path data-name="Path 4665" d="m12.488 4.172-2.4 7.463a.202.202 0 0 1-.4-.063v-7.4H2.322v3.357h3.559v7.891h6.994l3.8-11.25z"/>
    </g>
</svg>
